<svg width="50" height="50" viewBox="0 0 50 50" fill="none" xmlns="http://www.w3.org/2000/svg">
<path fill-rule="evenodd" clip-rule="evenodd" d="M13.6426 11.6444C13.6426 10.1408 14.8615 8.922 16.365 8.922H18.4526C19.9561 8.922 21.175 10.1408 21.175 11.6444V14.4491H27.3248C28.8284 14.4491 30.0472 15.668 30.0472 17.1715V19.0509H37.3482C38.8518 19.0509 40.0706 20.2697 40.0706 21.7733V26.239H44.1591C46.3368 26.239 47.685 28.7175 46.3338 30.5247C43.4128 34.4315 40.7526 37.0306 36.2286 39.4347C33.9913 40.6237 31.4948 41.0779 29.0583 41.0779H15.3862C11.3899 41.0779 7.73649 38.82 5.94926 35.2456L3.41592 30.1789C2.51087 28.3688 3.82712 26.239 5.85089 26.239H9.72837V21.7982C9.72837 20.2947 10.9472 19.0759 12.4508 19.0759H13.6426V11.6444ZM13.6426 21.3892H12.4508C12.2249 21.3892 12.0417 21.5724 12.0417 21.7982V26.239H13.6426V21.3892ZM15.956 26.239H18.8616V14.9243H15.956V26.239ZM15.956 12.6109H18.8616V11.6444C18.8616 11.4185 18.6785 11.2354 18.4526 11.2354H16.365C16.1391 11.2354 15.956 11.4185 15.956 11.6444V12.6109ZM21.175 16.7625V19.0509H27.7338V17.1715C27.7338 16.9456 27.5507 16.7625 27.3248 16.7625H21.175ZM21.175 21.3643V26.239H37.7572V21.7733C37.7572 21.5474 37.5741 21.3643 37.3482 21.3643H21.175ZM5.85089 28.5524C5.54685 28.5524 5.34909 28.8723 5.48507 29.1443L8.01841 34.211C9.41377 37.0017 12.2661 38.7645 15.3862 38.7645H29.0583C31.2193 38.7645 33.3204 38.3605 35.143 37.3919C39.3 35.1828 41.7141 32.8402 44.481 29.1395C44.6446 28.9207 44.5111 28.5524 44.1591 28.5524H5.85089ZM8.49523 29.6493C9.0577 29.3464 9.75918 29.5569 10.062 30.1193L11.2045 32.241C12.2939 34.2642 14.4062 35.5258 16.704 35.5258H19.9165C20.5553 35.5258 21.0732 36.0437 21.0732 36.6825C21.0732 37.3213 20.5553 37.8392 19.9165 37.8392H16.704C13.5551 37.8392 10.6605 36.1103 9.16761 33.3378L8.02519 31.2161C7.72232 30.6536 7.93277 29.9522 8.49523 29.6493Z" fill="black"/>
<path fill-rule="evenodd" clip-rule="evenodd" d="M13.6426 11.6444C13.6426 10.1408 14.8615 8.922 16.365 8.922H18.4526C19.9561 8.922 21.175 10.1408 21.175 11.6444V14.4491H27.3248C28.8284 14.4491 30.0472 15.668 30.0472 17.1715V19.0509H37.3482C38.8518 19.0509 40.0706 20.2697 40.0706 21.7733V26.239H44.1591C46.3368 26.239 47.685 28.7175 46.3338 30.5247C43.4128 34.4315 40.7526 37.0306 36.2286 39.4347C33.9913 40.6237 31.4948 41.0779 29.0583 41.0779H15.3862C11.3899 41.0779 7.73649 38.82 5.94926 35.2456L3.41592 30.1789C2.51087 28.3688 3.82712 26.239 5.85089 26.239H9.72837V21.7982C9.72837 20.2947 10.9472 19.0759 12.4508 19.0759H13.6426V11.6444ZM13.6426 21.3892H12.4508C12.2249 21.3892 12.0417 21.5724 12.0417 21.7982V26.239H13.6426V21.3892ZM15.956 26.239H18.8616V14.9243H15.956V26.239ZM15.956 12.6109H18.8616V11.6444C18.8616 11.4185 18.6785 11.2354 18.4526 11.2354H16.365C16.1391 11.2354 15.956 11.4185 15.956 11.6444V12.6109ZM21.175 16.7625V19.0509H27.7338V17.1715C27.7338 16.9456 27.5507 16.7625 27.3248 16.7625H21.175ZM21.175 21.3643V26.239H37.7572V21.7733C37.7572 21.5474 37.5741 21.3643 37.3482 21.3643H21.175ZM5.85089 28.5524C5.54685 28.5524 5.34909 28.8723 5.48507 29.1443L8.01841 34.211C9.41377 37.0017 12.2661 38.7645 15.3862 38.7645H29.0583C31.2193 38.7645 33.3204 38.3605 35.143 37.3919C39.3 35.1828 41.7141 32.8402 44.481 29.1395C44.6446 28.9207 44.5111 28.5524 44.1591 28.5524H5.85089ZM8.49523 29.6493C9.0577 29.3464 9.75918 29.5569 10.062 30.1193L11.2045 32.241C12.2939 34.2642 14.4062 35.5258 16.704 35.5258H19.9165C20.5553 35.5258 21.0732 36.0437 21.0732 36.6825C21.0732 37.3213 20.5553 37.8392 19.9165 37.8392H16.704C13.5551 37.8392 10.6605 36.1103 9.16761 33.3378L8.02519 31.2161C7.72232 30.6536 7.93277 29.9522 8.49523 29.6493Z" fill="url(#paint0_linear_363_1511)"/>
<path d="M18.8616 12.6109H15.956V11.6444C15.956 11.4185 16.1391 11.2354 16.365 11.2354H18.4526C18.6785 11.2354 18.8616 11.4185 18.8616 11.6444V12.6109Z" fill="black"/>
<path d="M18.8616 12.6109H15.956V11.6444C15.956 11.4185 16.1391 11.2354 16.365 11.2354H18.4526C18.6785 11.2354 18.8616 11.4185 18.8616 11.6444V12.6109Z" fill="url(#paint1_linear_363_1511)"/>
<path d="M21.175 19.0509V16.7625H27.3248C27.5507 16.7625 27.7338 16.9456 27.7338 17.1715V19.0509H21.175Z" fill="black"/>
<path d="M21.175 19.0509V16.7625H27.3248C27.5507 16.7625 27.7338 16.9456 27.7338 17.1715V19.0509H21.175Z" fill="url(#paint2_linear_363_1511)"/>
<path d="M12.4508 21.3892H13.6426V26.239H12.0417V21.7982C12.0417 21.5724 12.2249 21.3892 12.4508 21.3892Z" fill="black"/>
<path d="M12.4508 21.3892H13.6426V26.239H12.0417V21.7982C12.0417 21.5724 12.2249 21.3892 12.4508 21.3892Z" fill="url(#paint3_linear_363_1511)"/>
<path d="M25.0781 23.8086C25.0781 24.4474 24.5603 24.9653 23.9214 24.9653C23.2826 24.9653 22.7648 24.4474 22.7648 23.8086C22.7648 23.1697 23.2826 22.6519 23.9214 22.6519C24.5603 22.6519 25.0781 23.1697 25.0781 23.8086Z" fill="black"/>
<path d="M25.0781 23.8086C25.0781 24.4474 24.5603 24.9653 23.9214 24.9653C23.2826 24.9653 22.7648 24.4474 22.7648 23.8086C22.7648 23.1697 23.2826 22.6519 23.9214 22.6519C24.5603 22.6519 25.0781 23.1697 25.0781 23.8086Z" fill="url(#paint4_linear_363_1511)"/>
<path d="M30.6302 23.8086C30.6302 24.4474 30.1124 24.9653 29.4735 24.9653C28.8347 24.9653 28.3169 24.4474 28.3169 23.8086C28.3169 23.1697 28.8347 22.6519 29.4735 22.6519C30.1124 22.6519 30.6302 23.1697 30.6302 23.8086Z" fill="black"/>
<path d="M30.6302 23.8086C30.6302 24.4474 30.1124 24.9653 29.4735 24.9653C28.8347 24.9653 28.3169 24.4474 28.3169 23.8086C28.3169 23.1697 28.8347 22.6519 29.4735 22.6519C30.1124 22.6519 30.6302 23.1697 30.6302 23.8086Z" fill="url(#paint5_linear_363_1511)"/>
<path d="M36.1823 23.8086C36.1823 24.4474 35.6645 24.9653 35.0256 24.9653C34.3868 24.9653 33.869 24.4474 33.869 23.8086C33.869 23.1697 34.3868 22.6519 35.0256 22.6519C35.6645 22.6519 36.1823 23.1697 36.1823 23.8086Z" fill="black"/>
<path d="M36.1823 23.8086C36.1823 24.4474 35.6645 24.9653 35.0256 24.9653C34.3868 24.9653 33.869 24.4474 33.869 23.8086C33.869 23.1697 34.3868 22.6519 35.0256 22.6519C35.6645 22.6519 36.1823 23.1697 36.1823 23.8086Z" fill="url(#paint6_linear_363_1511)"/>
<path fill-rule="evenodd" clip-rule="evenodd" d="M41.4092 29.4952C41.929 29.8665 42.0494 30.589 41.6781 31.1088C41.0118 32.0416 39.8205 33.2183 38.4424 34.2969C37.0569 35.3812 35.3948 36.4353 33.7493 37.0682C33.153 37.2975 32.4838 37 32.2545 36.4038C32.0251 35.8076 32.3226 35.1383 32.9188 34.909C34.2807 34.3852 35.7417 33.4729 37.0166 32.4751C38.2988 31.4717 39.3052 30.4507 39.7956 29.7642C40.1669 29.2443 40.8893 29.1239 41.4092 29.4952Z" fill="black"/>
<path fill-rule="evenodd" clip-rule="evenodd" d="M41.4092 29.4952C41.929 29.8665 42.0494 30.589 41.6781 31.1088C41.0118 32.0416 39.8205 33.2183 38.4424 34.2969C37.0569 35.3812 35.3948 36.4353 33.7493 37.0682C33.153 37.2975 32.4838 37 32.2545 36.4038C32.0251 35.8076 32.3226 35.1383 32.9188 34.909C34.2807 34.3852 35.7417 33.4729 37.0166 32.4751C38.2988 31.4717 39.3052 30.4507 39.7956 29.7642C40.1669 29.2443 40.8893 29.1239 41.4092 29.4952Z" fill="url(#paint7_linear_363_1511)"/>
<defs>
<linearGradient id="paint0_linear_363_1511" x1="25" y1="8.922" x2="25" y2="41.0779" gradientUnits="userSpaceOnUse">
<stop stop-color="#F28A0D"/>
<stop offset="1" stop-color="#A6600D"/>
</linearGradient>
<linearGradient id="paint1_linear_363_1511" x1="25" y1="8.922" x2="25" y2="41.0779" gradientUnits="userSpaceOnUse">
<stop stop-color="#F28A0D"/>
<stop offset="1" stop-color="#A6600D"/>
</linearGradient>
<linearGradient id="paint2_linear_363_1511" x1="25" y1="8.922" x2="25" y2="41.0779" gradientUnits="userSpaceOnUse">
<stop stop-color="#F28A0D"/>
<stop offset="1" stop-color="#A6600D"/>
</linearGradient>
<linearGradient id="paint3_linear_363_1511" x1="25" y1="8.922" x2="25" y2="41.0779" gradientUnits="userSpaceOnUse">
<stop stop-color="#F28A0D"/>
<stop offset="1" stop-color="#A6600D"/>
</linearGradient>
<linearGradient id="paint4_linear_363_1511" x1="25" y1="8.922" x2="25" y2="41.0779" gradientUnits="userSpaceOnUse">
<stop stop-color="#F28A0D"/>
<stop offset="1" stop-color="#A6600D"/>
</linearGradient>
<linearGradient id="paint5_linear_363_1511" x1="25" y1="8.922" x2="25" y2="41.0779" gradientUnits="userSpaceOnUse">
<stop stop-color="#F28A0D"/>
<stop offset="1" stop-color="#A6600D"/>
</linearGradient>
<linearGradient id="paint6_linear_363_1511" x1="25" y1="8.922" x2="25" y2="41.0779" gradientUnits="userSpaceOnUse">
<stop stop-color="#F28A0D"/>
<stop offset="1" stop-color="#A6600D"/>
</linearGradient>
<linearGradient id="paint7_linear_363_1511" x1="25" y1="8.922" x2="25" y2="41.0779" gradientUnits="userSpaceOnUse">
<stop stop-color="#F28A0D"/>
<stop offset="1" stop-color="#A6600D"/>
</linearGradient>
</defs>
</svg>
