<svg width="45" height="45" viewBox="0 0 45 45" fill="none" xmlns="http://www.w3.org/2000/svg">
<path fill-rule="evenodd" clip-rule="evenodd" d="M38.8417 3.59727C38.993 4.16193 38.6579 4.74232 38.0932 4.89362L7.4545 13.1032C6.88985 13.2545 6.30945 12.9194 6.15815 12.3548C6.00686 11.7901 6.34195 11.2097 6.9066 11.0584L37.5453 2.84883C38.11 2.69753 38.6904 3.03262 38.8417 3.59727Z" fill="#E8850E"/>
<path fill-rule="evenodd" clip-rule="evenodd" d="M28.0006 4.52403C28.1519 5.08869 27.8168 5.66908 27.2521 5.82038L23.1733 6.91328V15.0279C23.1733 15.6124 22.6995 16.0863 22.1149 16.0863C21.5303 16.0863 21.0564 15.6124 21.0564 15.0279V7.48051L17.5255 8.42661C16.9609 8.57791 16.3805 8.24282 16.2292 7.67816C16.0779 7.11351 16.413 6.53311 16.9776 6.38182L26.7042 3.77559C27.2689 3.62429 27.8493 3.95938 28.0006 4.52403Z" fill="#E8850E"/>
<path fill-rule="evenodd" clip-rule="evenodd" d="M20.5849 14.3929C19.1662 14.3929 18.016 15.543 18.016 16.9618V17.9173H13.2215C10.9685 17.9173 9.14209 19.7437 9.14209 21.9966V37.742C9.14209 40.1972 11.1324 42.1875 13.5876 42.1875H30.4773C32.9325 42.1875 34.9228 40.1972 34.9228 37.742V21.9966C34.9228 19.7437 33.0964 17.9173 30.8434 17.9173H26.0489V16.9618C26.0489 15.543 24.8987 14.3929 23.48 14.3929H20.5849ZM20.1329 17.9173H23.932V16.9618C23.932 16.7122 23.7296 16.5098 23.48 16.5098H20.5849C20.3353 16.5098 20.1329 16.7122 20.1329 16.9618V17.9173ZM32.8052 21.9452C32.7779 20.8851 31.91 20.0342 30.8434 20.0342H13.2215C12.1548 20.0342 11.287 20.8851 11.2597 21.9452H32.8052ZM32.8059 24.0621H29.0069V33.0218H32.8059V24.0621ZM32.8059 35.1387H29.0069V36.346C29.0069 37.7647 27.8567 38.9149 26.4379 38.9149H17.627C16.2082 38.9149 15.058 37.7647 15.058 36.346V35.1387H11.259V37.742C11.259 39.028 12.3016 40.0706 13.5876 40.0706H30.4773C31.7633 40.0706 32.8059 39.028 32.8059 37.742V35.1387ZM11.259 33.0218H15.058V24.0621H11.259V33.0218ZM17.175 36.346C17.175 36.5956 17.3773 36.798 17.627 36.798H20.974V24.0621H17.175V36.346ZM23.0909 24.0621V36.798H26.4379C26.6876 36.798 26.8899 36.5956 26.8899 36.346V24.0621H23.0909Z" fill="url(#paint0_linear_208_805)"/>
<path d="M23.932 17.9173H20.1329V16.9618C20.1329 16.7122 20.3353 16.5098 20.5849 16.5098H23.48C23.7296 16.5098 23.932 16.7122 23.932 16.9618V17.9173Z" fill="url(#paint1_linear_208_805)"/>
<path d="M15.058 33.0218H11.259V24.0621H15.058V33.0218Z" fill="url(#paint2_linear_208_805)"/>
<path d="M29.0069 24.0621H32.8059V33.0218H29.0069V24.0621Z" fill="url(#paint3_linear_208_805)"/>
<defs>
<linearGradient id="paint0_linear_208_805" x1="22.022" y1="1.7861" x2="22.0324" y2="42.1875" gradientUnits="userSpaceOnUse">
<stop stop-color="#F19627"/>
<stop offset="1" stop-color="#B66A0E"/>
</linearGradient>
<linearGradient id="paint1_linear_208_805" x1="22.022" y1="1.7861" x2="22.0324" y2="42.1875" gradientUnits="userSpaceOnUse">
<stop stop-color="#F19627"/>
<stop offset="1" stop-color="#B66A0E"/>
</linearGradient>
<linearGradient id="paint2_linear_208_805" x1="22.022" y1="1.7861" x2="22.0324" y2="42.1875" gradientUnits="userSpaceOnUse">
<stop stop-color="#F19627"/>
<stop offset="1" stop-color="#B66A0E"/>
</linearGradient>
<linearGradient id="paint3_linear_208_805" x1="22.022" y1="1.7861" x2="22.0324" y2="42.1875" gradientUnits="userSpaceOnUse">
<stop stop-color="#F19627"/>
<stop offset="1" stop-color="#B66A0E"/>
</linearGradient>
</defs>
</svg>
