<svg width="13" height="13" viewBox="0 0 13 13" fill="none" xmlns="http://www.w3.org/2000/svg">
<path d="M11.4382 12.1467C10.0323 12.1467 8.6433 11.8403 7.27117 11.2273C5.89904 10.6143 4.65062 9.7455 3.52593 8.62081C2.40123 7.49611 1.5324 6.2477 0.91944 4.87556C0.30648 3.50343 0 2.11443 0 0.708559C0 0.506114 0.0674819 0.337409 0.202446 0.202446C0.337409 0.0674819 0.506114 0 0.708559 0H3.44157C3.59903 0 3.73962 0.0534231 3.86334 0.160269C3.98705 0.267116 4.06016 0.393644 4.08265 0.539855L4.52128 2.90172C4.54378 3.08167 4.53816 3.23351 4.50441 3.35722C4.47067 3.48094 4.40881 3.58779 4.31884 3.67776L2.6824 5.33107C2.90734 5.7472 3.17446 6.14928 3.48375 6.5373C3.79304 6.92533 4.13326 7.29929 4.50441 7.65919C4.85307 8.00785 5.2186 8.3312 5.60099 8.62924C5.98339 8.92729 6.38828 9.20003 6.81567 9.44746L8.40149 7.86164C8.50271 7.76041 8.63487 7.6845 8.79795 7.63388C8.96103 7.58327 9.1213 7.56921 9.27876 7.59171L11.6069 8.06408C11.7643 8.10907 11.8937 8.19061 11.9949 8.3087C12.0961 8.4268 12.1467 8.55895 12.1467 8.70516V11.4382C12.1467 11.6406 12.0793 11.8093 11.9443 11.9443C11.8093 12.0793 11.6406 12.1467 11.4382 12.1467ZM2.04133 4.04891L3.15478 2.93546L2.86798 1.34964H1.36651C1.42274 1.81076 1.50147 2.26627 1.60269 2.71614C1.70392 3.16602 1.85013 3.61028 2.04133 4.04891ZM8.08095 10.0885C8.51958 10.2797 8.96665 10.4316 9.42215 10.544C9.87766 10.6565 10.336 10.7296 10.7971 10.7634V9.27876L9.21127 8.95822L8.08095 10.0885Z" fill="#95D904"/>
</svg>
