<svg width="36" height="32" viewBox="0 0 36 32" fill="none" xmlns="http://www.w3.org/2000/svg">
<path fill-rule="evenodd" clip-rule="evenodd" d="M2.74858 27.0921C2.74858 25.6381 3.95473 24.4595 5.4426 24.4595H6.90067C8.38854 24.4595 9.59469 25.6381 9.59469 27.0921V29.3674C9.59469 30.8213 8.38854 32 6.90067 32H5.4426C3.95474 32 2.74858 30.8213 2.74858 29.3674V27.0921ZM5.4426 26.3117C5.00157 26.3117 4.64404 26.6611 4.64404 27.0921V29.3674C4.64404 29.7984 5.00157 30.1477 5.4426 30.1477H6.90067C7.34171 30.1477 7.69923 29.7984 7.69923 29.3674V27.0921C7.69923 26.6611 7.34171 26.3117 6.90067 26.3117H5.4426Z" fill="url(#paint0_linear_267_4343)"/>
<path fill-rule="evenodd" clip-rule="evenodd" d="M26.4019 27.0921C26.4019 25.6381 27.608 24.4595 29.0959 24.4595H30.554C32.0418 24.4595 33.248 25.6381 33.248 27.0921V29.3674C33.248 30.8213 32.0418 32 30.554 32H29.0959C27.608 32 26.4019 30.8213 26.4019 29.3674V27.0921ZM29.0959 26.3117C28.6549 26.3117 28.2973 26.6611 28.2973 27.0921V29.3674C28.2973 29.7984 28.6549 30.1477 29.0959 30.1477H30.554C30.995 30.1477 31.3525 29.7984 31.3525 29.3674V27.0921C31.3525 26.6611 30.995 26.3117 30.554 26.3117H29.0959Z" fill="url(#paint1_linear_267_4343)"/>
<path d="M4.64404 27.0921C4.64404 26.6611 5.00157 26.3117 5.4426 26.3117H6.90067C7.34171 26.3117 7.69923 26.6611 7.69923 27.0921V29.3674C7.69923 29.7984 7.34171 30.1477 6.90067 30.1477H5.4426C5.00157 30.1477 4.64404 29.7984 4.64404 29.3674V27.0921Z" fill="url(#paint2_linear_267_4343)"/>
<path d="M28.2973 27.0921C28.2973 26.6611 28.6549 26.3117 29.0959 26.3117H30.554C30.995 26.3117 31.3525 26.6611 31.3525 27.0921V29.3674C31.3525 29.7984 30.995 30.1477 30.554 30.1477H29.0959C28.6549 30.1477 28.2973 29.7984 28.2973 29.3674V27.0921Z" fill="url(#paint3_linear_267_4343)"/>
<path fill-rule="evenodd" clip-rule="evenodd" d="M0 9.17415C0 7.56312 1.33646 6.25713 2.98507 6.25713H5.68835C6.69547 6.25713 7.42781 7.19163 7.1653 8.14176L6.37948 10.9859C6.19928 11.6381 5.59386 12.0912 4.90254 12.0912H2.98507C1.33646 12.0912 0 10.7852 0 9.17415ZM2.98507 8.10938C2.3833 8.10938 1.89546 8.5861 1.89546 9.17415C1.89546 9.76221 2.3833 10.2389 2.98507 10.2389H4.62253L5.21091 8.10938H2.98507Z" fill="url(#paint4_linear_267_4343)"/>
<path d="M1.89546 9.17415C1.89546 8.5861 2.3833 8.10938 2.98507 8.10938H5.21091L4.62253 10.2389H2.98507C2.3833 10.2389 1.89546 9.76221 1.89546 9.17415Z" fill="url(#paint5_linear_267_4343)"/>
<path fill-rule="evenodd" clip-rule="evenodd" d="M36 9.17415C36 7.56312 34.6635 6.25713 33.0149 6.25713H30.3116C29.3045 6.25713 28.5722 7.19163 28.8347 8.14176L29.6205 10.9859C29.8007 11.6381 30.4061 12.0912 31.0975 12.0912H33.0149C34.6635 12.0912 36 10.7852 36 9.17415ZM33.0149 8.10938C33.6167 8.10938 34.1045 8.5861 34.1045 9.17415C34.1045 9.76221 33.6167 10.2389 33.0149 10.2389H31.3775L30.7891 8.10938H33.0149Z" fill="url(#paint6_linear_267_4343)"/>
<path d="M34.1045 9.17415C34.1045 8.5861 33.6167 8.10938 33.0149 8.10938H30.7891L31.3775 10.2389H33.0149C33.6167 10.2389 34.1045 9.76221 34.1045 9.17415Z" fill="url(#paint7_linear_267_4343)"/>
<path fill-rule="evenodd" clip-rule="evenodd" d="M7.17399 2.11894C7.42476 0.887152 8.53101 0 9.81623 0H26.7526C28.0379 0 29.1441 0.887154 29.3949 2.11894L30.9004 9.51371C31.0586 10.291 30.8508 11.0432 30.4055 11.6171C29.918 12.2454 29.146 12.66 28.2581 12.66H8.31077C7.38292 12.66 6.58157 12.2072 6.0993 11.531C5.6985 10.969 5.51807 10.2527 5.66853 9.51371L7.17399 2.11894ZM9.81623 1.85225C9.43527 1.85225 9.10735 2.11522 9.03302 2.48035L7.52755 9.87512C7.42929 10.3578 7.80717 10.8077 8.31077 10.8077H28.2581C28.7617 10.8077 29.1396 10.3578 29.0413 9.87512L27.5359 2.48035C27.4615 2.11523 27.1336 1.85225 26.7526 1.85225H9.81623Z" fill="url(#paint8_linear_267_4343)"/>
<path fill-rule="evenodd" clip-rule="evenodd" d="M7.43735 10.0782L6.0993 11.531L4.47684 13.2927C3.90199 13.9169 3.42695 14.6133 3.06101 15.3584C2.77086 15.9491 2.54928 16.5704 2.4009 17.2106C2.25503 17.8399 2.17991 18.4875 2.17991 19.142V19.909V21.7612V23.6793C2.17991 24.1103 2.53743 24.4597 2.97847 24.4597H33.0403C33.4813 24.4597 33.8389 24.1103 33.8389 23.6793V21.7493V19.9209V18.8563C33.8389 18.3008 33.7847 17.7499 33.679 17.2106C33.554 16.5732 33.3568 15.9519 33.0917 15.3584C32.7722 14.643 32.3539 13.9678 31.8441 13.3528L30.4055 11.6171L29.0995 10.0415L30.5724 8.8757L33.317 12.1869C34.881 14.0737 35.7343 16.4282 35.7343 18.8563V23.6793C35.7343 25.1333 34.5282 26.3119 33.0403 26.3119H2.97847C1.4906 26.3119 0.284446 25.1333 0.284446 23.6793V19.142C0.284446 16.5243 1.27598 13.9993 3.06795 12.0536L6.02846 8.83907L7.43735 10.0782Z" fill="url(#paint9_linear_267_4343)"/>
<path fill-rule="evenodd" clip-rule="evenodd" d="M1.10956 16.2845C1.10956 15.773 1.53388 15.3584 2.05729 15.3584H3.06101H7.0541C9.08869 15.3584 10.7554 16.8973 10.9019 18.849C11.4762 19.6854 12.4421 20.1934 13.4823 20.1934H22.2614C23.3016 20.1934 24.2676 19.6854 24.8419 18.849C24.9883 16.8973 26.6551 15.3584 28.6897 15.3584H33.0917H33.6865C34.2099 15.3584 34.6342 15.773 34.6342 16.2845C34.6342 16.796 34.2099 17.2106 33.6865 17.2106H33.679H28.6897C27.6057 17.2106 26.7269 18.0693 26.7269 19.1286C26.7269 19.5596 27.0844 19.909 27.5255 19.909H33.6865C33.7384 19.909 33.7893 19.9131 33.8389 19.9209C34.2898 19.9921 34.6342 20.3743 34.6342 20.8351C34.6342 21.2959 34.2898 21.6781 33.8389 21.7493C33.7893 21.7572 33.7384 21.7612 33.6865 21.7612H27.5255C26.7234 21.7612 26.0032 21.4187 25.5097 20.8752C24.6175 21.6192 23.4706 22.0457 22.2614 22.0457H13.4823C12.2731 22.0457 11.1262 21.6192 10.2341 20.8752C9.74053 21.4187 9.02035 21.7612 8.2183 21.7612H2.17991H2.05729C1.53388 21.7612 1.10956 21.3466 1.10956 20.8351C1.10956 20.3236 1.53388 19.909 2.05729 19.909H2.17991H8.2183C8.65933 19.909 9.01686 19.5596 9.01686 19.1286C9.01686 18.0693 8.1381 17.2106 7.0541 17.2106H2.4009H2.05729C1.53388 17.2106 1.10956 16.796 1.10956 16.2845Z" fill="url(#paint10_linear_267_4343)"/>
<path d="M28.2581 12.66H8.31077C7.38292 12.66 6.58157 12.2072 6.0993 11.531L4.47684 13.2927C3.90199 13.9169 3.42695 14.6133 3.06101 15.3584H7.0541C9.08869 15.3584 10.7554 16.8973 10.9019 18.849C11.4762 19.6854 12.4421 20.1934 13.4823 20.1934H22.2614C23.3016 20.1934 24.2676 19.6854 24.8419 18.849C24.9883 16.8973 26.6551 15.3584 28.6897 15.3584H33.0917C32.7722 14.643 32.3539 13.9678 31.8441 13.3528L30.4055 11.6171C29.918 12.2454 29.146 12.66 28.2581 12.66Z" fill="url(#paint11_linear_267_4343)"/>
<path fill-rule="evenodd" clip-rule="evenodd" d="M20.4565 3.28036C20.7334 3.71441 20.5978 4.28563 20.1536 4.55621L13.2777 8.74486C12.8335 9.01544 12.249 8.88293 11.9721 8.44887C11.6952 8.01482 11.8308 7.4436 12.275 7.17301L19.1509 2.98437C19.5951 2.71378 20.1796 2.8463 20.4565 3.28036ZM24.0313 5.37359C24.3088 5.80727 24.174 6.37867 23.7302 6.64986L18.7795 9.67499C18.3357 9.94618 17.751 9.81445 17.4735 9.38077C17.196 8.94709 17.3308 8.37569 17.7746 8.1045L22.7252 5.07937C23.169 4.80819 23.7538 4.93991 24.0313 5.37359Z" fill="url(#paint12_linear_267_4343)"/>
<defs>
<linearGradient id="paint0_linear_267_4343" x1="18.0071" y1="-0.055598" x2="17.9988" y2="32" gradientUnits="userSpaceOnUse">
<stop stop-color="#EE880D"/>
<stop offset="1" stop-color="#A9620D"/>
</linearGradient>
<linearGradient id="paint1_linear_267_4343" x1="18.0071" y1="-0.055598" x2="17.9988" y2="32" gradientUnits="userSpaceOnUse">
<stop stop-color="#EE880D"/>
<stop offset="1" stop-color="#A9620D"/>
</linearGradient>
<linearGradient id="paint2_linear_267_4343" x1="18.0071" y1="-0.055598" x2="17.9988" y2="32" gradientUnits="userSpaceOnUse">
<stop stop-color="#EE880D"/>
<stop offset="1" stop-color="#A9620D"/>
</linearGradient>
<linearGradient id="paint3_linear_267_4343" x1="18.0071" y1="-0.055598" x2="17.9988" y2="32" gradientUnits="userSpaceOnUse">
<stop stop-color="#EE880D"/>
<stop offset="1" stop-color="#A9620D"/>
</linearGradient>
<linearGradient id="paint4_linear_267_4343" x1="18.0069" y1="-0.0555991" x2="18.0069" y2="32.1181" gradientUnits="userSpaceOnUse">
<stop stop-color="#EE880D"/>
<stop offset="1" stop-color="#A9620D"/>
</linearGradient>
<linearGradient id="paint5_linear_267_4343" x1="18.0069" y1="-0.0555991" x2="18.0069" y2="32.1181" gradientUnits="userSpaceOnUse">
<stop stop-color="#EE880D"/>
<stop offset="1" stop-color="#A9620D"/>
</linearGradient>
<linearGradient id="paint6_linear_267_4343" x1="18.0069" y1="-0.0555991" x2="18.0069" y2="32.1181" gradientUnits="userSpaceOnUse">
<stop stop-color="#EE880D"/>
<stop offset="1" stop-color="#A9620D"/>
</linearGradient>
<linearGradient id="paint7_linear_267_4343" x1="18.0069" y1="-0.0555991" x2="18.0069" y2="32.1181" gradientUnits="userSpaceOnUse">
<stop stop-color="#EE880D"/>
<stop offset="1" stop-color="#A9620D"/>
</linearGradient>
<linearGradient id="paint8_linear_267_4343" x1="18.0093" y1="0" x2="18.007" y2="31.8402" gradientUnits="userSpaceOnUse">
<stop stop-color="#EC870D"/>
<stop offset="1" stop-color="#A7620E"/>
</linearGradient>
<linearGradient id="paint9_linear_267_4343" x1="18.0093" y1="0" x2="18.007" y2="31.8402" gradientUnits="userSpaceOnUse">
<stop stop-color="#EC870D"/>
<stop offset="1" stop-color="#A7620E"/>
</linearGradient>
<linearGradient id="paint10_linear_267_4343" x1="18.0093" y1="0" x2="18.007" y2="31.8402" gradientUnits="userSpaceOnUse">
<stop stop-color="#EC870D"/>
<stop offset="1" stop-color="#A7620E"/>
</linearGradient>
<linearGradient id="paint11_linear_267_4343" x1="18.0093" y1="0" x2="18.007" y2="31.8402" gradientUnits="userSpaceOnUse">
<stop stop-color="#EC870D"/>
<stop offset="1" stop-color="#A7620E"/>
</linearGradient>
<linearGradient id="paint12_linear_267_4343" x1="18.0078" y1="0.0370235" x2="18.0078" y2="31.5717" gradientUnits="userSpaceOnUse">
<stop stop-color="#EA860D"/>
<stop offset="1" stop-color="#BD6D0D"/>
</linearGradient>
</defs>
</svg>
