<svg width="45" height="45" viewBox="0 0 45 45" fill="none" xmlns="http://www.w3.org/2000/svg">
<path d="M15.5455 45L11.6591 38.1429L4.29545 36.4286L5.01136 28.5L0 22.5L5.01136 16.5L4.29545 8.57143L11.6591 6.85714L15.5455 0L22.5 3.10714L29.4545 0L33.3409 6.85714L40.7045 8.57143L39.9886 16.5L45 22.5L39.9886 28.5L40.7045 36.4286L33.3409 38.1429L29.4545 45L22.5 41.8929L15.5455 45ZM17.2841 39.5357L22.5 37.1786L27.8182 39.5357L30.6818 34.3929L36.3068 33L35.7955 27L39.5795 22.5L35.7955 17.8929L36.3068 11.8929L30.6818 10.6071L27.7159 5.46429L22.5 7.82143L17.1818 5.46429L14.3182 10.6071L8.69318 11.8929L9.20455 17.8929L5.42045 22.5L9.20455 27L8.69318 33.1071L14.3182 34.3929L17.2841 39.5357ZM20.3523 30.1071L31.9091 18L29.0455 14.8929L20.3523 24L15.9545 19.5L13.0909 22.5L20.3523 30.1071Z" fill="url(#paint0_linear_1_504)"/>
<defs>
<linearGradient id="paint0_linear_1_504" x1="22.5" y1="0" x2="22.5" y2="45" gradientUnits="userSpaceOnUse">
<stop stop-color="#95D904"/>
<stop offset="1" stop-color="#4F7302"/>
</linearGradient>
</defs>
</svg>
