<svg width="45" height="35" viewBox="0 0 45 35" fill="none" xmlns="http://www.w3.org/2000/svg">
<path d="M0 35V28.875C0 27.6354 0.298295 26.4961 0.894886 25.457C1.49148 24.418 2.28409 23.625 3.27273 23.0781C5.38636 21.9479 7.53409 21.1003 9.71591 20.5352C11.8977 19.9701 14.1136 19.6875 16.3636 19.6875C18.6136 19.6875 20.8295 19.9701 23.0114 20.5352C25.1932 21.1003 27.3409 21.9479 29.4545 23.0781C30.4432 23.625 31.2358 24.418 31.8324 25.457C32.429 26.4961 32.7273 27.6354 32.7273 28.875V35H0ZM36.8182 35V28.4375C36.8182 26.8333 36.4006 25.293 35.5653 23.8164C34.7301 22.3398 33.5455 21.0729 32.0114 20.0156C33.75 20.2344 35.3864 20.6081 36.9205 21.1367C38.4545 21.6654 39.8864 22.3125 41.2159 23.0781C42.4432 23.8073 43.3807 24.6185 44.0284 25.5117C44.6761 26.4049 45 27.3802 45 28.4375V35H36.8182ZM16.3636 17.5C14.1136 17.5 12.1875 16.6432 10.5852 14.9297C8.98295 13.2161 8.18182 11.1562 8.18182 8.75C8.18182 6.34375 8.98295 4.28385 10.5852 2.57031C12.1875 0.856771 14.1136 0 16.3636 0C18.6136 0 20.5398 0.856771 22.142 2.57031C23.7443 4.28385 24.5455 6.34375 24.5455 8.75C24.5455 11.1562 23.7443 13.2161 22.142 14.9297C20.5398 16.6432 18.6136 17.5 16.3636 17.5ZM36.8182 8.75C36.8182 11.1562 36.017 13.2161 34.4148 14.9297C32.8125 16.6432 30.8864 17.5 28.6364 17.5C28.2614 17.5 27.7841 17.4544 27.2045 17.3633C26.625 17.2721 26.1477 17.1719 25.7727 17.0625C26.6932 15.8958 27.4006 14.6016 27.8949 13.1797C28.3892 11.7578 28.6364 10.2812 28.6364 8.75C28.6364 7.21875 28.3892 5.74219 27.8949 4.32031C27.4006 2.89844 26.6932 1.60417 25.7727 0.4375C26.25 0.255208 26.7273 0.136719 27.2045 0.0820312C27.6818 0.0273438 28.1591 0 28.6364 0C30.8864 0 32.8125 0.856771 34.4148 2.57031C36.017 4.28385 36.8182 6.34375 36.8182 8.75ZM4.09091 30.625H28.6364V28.875C28.6364 28.474 28.5426 28.1094 28.3551 27.7812C28.1676 27.4531 27.9205 27.1979 27.6136 27.0156C25.7727 26.0312 23.9148 25.293 22.0398 24.8008C20.1648 24.3086 18.2727 24.0625 16.3636 24.0625C14.4545 24.0625 12.5625 24.3086 10.6875 24.8008C8.8125 25.293 6.95455 26.0312 5.11364 27.0156C4.80682 27.1979 4.55966 27.4531 4.37216 27.7812C4.18466 28.1094 4.09091 28.474 4.09091 28.875V30.625ZM16.3636 13.125C17.4886 13.125 18.4517 12.6966 19.2528 11.8398C20.054 10.9831 20.4545 9.95312 20.4545 8.75C20.4545 7.54688 20.054 6.51693 19.2528 5.66016C18.4517 4.80339 17.4886 4.375 16.3636 4.375C15.2386 4.375 14.2756 4.80339 13.4744 5.66016C12.6733 6.51693 12.2727 7.54688 12.2727 8.75C12.2727 9.95312 12.6733 10.9831 13.4744 11.8398C14.2756 12.6966 15.2386 13.125 16.3636 13.125Z" fill="url(#paint0_linear_1_509)"/>
<defs>
<linearGradient id="paint0_linear_1_509" x1="46.0227" y1="0" x2="46.0227" y2="35.5" gradientUnits="userSpaceOnUse">
<stop stop-color="#95D904"/>
<stop offset="1" stop-color="#4F7302"/>
</linearGradient>
</defs>
</svg>
