<svg width="45" height="40" viewBox="0 0 45 40" fill="none" xmlns="http://www.w3.org/2000/svg">
<path d="M20.25 40V35.5556H38.25V19.7778C38.25 15.4444 36.7219 11.7685 33.6656 8.75C30.6094 5.73148 26.8875 4.22222 22.5 4.22222C18.1125 4.22222 14.3906 5.73148 11.3344 8.75C8.27813 11.7685 6.75 15.4444 6.75 19.7778V33.3333H4.5C3.2625 33.3333 2.20312 32.8981 1.32188 32.0278C0.440625 31.1574 0 30.1111 0 28.8889V24.4444C0 23.6667 0.196875 22.9352 0.590625 22.25C0.984375 21.5648 1.5375 21.0185 2.25 20.6111L2.41875 17.6667C2.71875 15.1481 3.45938 12.8148 4.64062 10.6667C5.82187 8.51852 7.30313 6.64815 9.08438 5.05556C10.8656 3.46296 12.9094 2.22222 15.2156 1.33333C17.5219 0.444444 19.95 0 22.5 0C25.05 0 27.4688 0.444444 29.7562 1.33333C32.0437 2.22222 34.0875 3.4537 35.8875 5.02778C37.6875 6.60185 39.1688 8.46296 40.3313 10.6111C41.4938 12.7593 42.2438 15.0926 42.5813 17.6111L42.75 20.5C43.4625 20.8333 44.0156 21.3333 44.4094 22C44.8031 22.6667 45 23.3704 45 24.1111V29.2222C45 29.963 44.8031 30.6667 44.4094 31.3333C44.0156 32 43.4625 32.5 42.75 32.8333V35.5556C42.75 36.7778 42.3094 37.8241 41.4281 38.6944C40.5469 39.5648 39.4875 40 38.25 40H20.25ZM15.75 24.4444C15.1125 24.4444 14.5781 24.2315 14.1469 23.8056C13.7156 23.3796 13.5 22.8519 13.5 22.2222C13.5 21.5926 13.7156 21.0648 14.1469 20.6389C14.5781 20.213 15.1125 20 15.75 20C16.3875 20 16.9219 20.213 17.3531 20.6389C17.7844 21.0648 18 21.5926 18 22.2222C18 22.8519 17.7844 23.3796 17.3531 23.8056C16.9219 24.2315 16.3875 24.4444 15.75 24.4444ZM29.25 24.4444C28.6125 24.4444 28.0781 24.2315 27.6469 23.8056C27.2156 23.3796 27 22.8519 27 22.2222C27 21.5926 27.2156 21.0648 27.6469 20.6389C28.0781 20.213 28.6125 20 29.25 20C29.8875 20 30.4219 20.213 30.8531 20.6389C31.2844 21.0648 31.5 21.5926 31.5 22.2222C31.5 22.8519 31.2844 23.3796 30.8531 23.8056C30.4219 24.2315 29.8875 24.4444 29.25 24.4444ZM9.05625 21C8.79375 17.0741 9.99375 13.7037 12.6562 10.8889C15.3187 8.07407 18.6375 6.66667 22.6125 6.66667C25.95 6.66667 28.8844 7.71296 31.4156 9.80556C33.9469 11.8981 35.475 14.5741 36 17.8333C32.5875 17.7963 29.4469 16.8889 26.5781 15.1111C23.7094 13.3333 21.5062 10.9259 19.9688 7.88889C19.3688 10.8519 18.1031 13.4907 16.1719 15.8056C14.2406 18.1204 11.8687 19.8519 9.05625 21Z" fill="url(#paint0_linear_378_4004)"/>
<defs>
<linearGradient id="paint0_linear_378_4004" x1="22.5" y1="0" x2="22.5" y2="40" gradientUnits="userSpaceOnUse">
<stop stop-color="#95D904"/>
<stop offset="1" stop-color="#4F7302"/>
</linearGradient>
</defs>
</svg>
