<svg width="45" height="45" viewBox="0 0 45 45" fill="none" xmlns="http://www.w3.org/2000/svg">
<path fill-rule="evenodd" clip-rule="evenodd" d="M36.0029 5.28637C35.7752 5.28637 35.5906 5.47097 35.5906 5.69868C35.5906 5.92638 35.7752 6.11098 36.0029 6.11098H39.7137C39.9414 6.11098 40.126 5.92638 40.126 5.69868C40.126 5.47097 39.9414 5.28637 39.7137 5.28637H36.0029ZM33.5291 5.69868C33.5291 4.33242 34.6367 3.22485 36.0029 3.22485H39.7137C41.0799 3.22485 42.1875 4.33242 42.1875 5.69868C42.1875 6.85138 41.3991 7.81994 40.3321 8.09456V32.0861C40.3321 36.5264 36.7325 40.126 32.2922 40.126H26.5207C26.1168 41.0945 25.161 41.7752 24.0461 41.7752H13.7385C12.0307 41.7752 10.6463 40.3908 10.6463 38.683V36.0072C10.6463 34.5248 11.848 33.323 13.3305 33.323H14.821C15.8812 33.323 16.885 33.8008 17.5536 34.6236C18.1376 35.3424 19.2348 35.3424 19.8188 34.6236C20.4874 33.8008 21.4911 33.323 22.5514 33.323H24.0419C25.2351 33.323 26.2465 34.1016 26.5957 35.1784H31.8799C33.8154 35.1784 35.3845 33.6093 35.3845 31.6738V8.09456C34.3175 7.81994 33.5291 6.85138 33.5291 5.69868ZM37.446 8.1725V31.6738C37.446 34.7479 34.954 37.2399 31.8799 37.2399H26.7261V38.0645H32.2922C35.594 38.0645 38.2706 35.3879 38.2706 32.0861V8.1725H37.446ZM24.6646 39.0953V36.0072C24.6646 35.6633 24.3858 35.3845 24.0419 35.3845H22.5514C22.1119 35.3845 21.6959 35.5826 21.4188 35.9236C20.0098 37.6578 17.3626 37.6578 15.9536 35.9236C15.6765 35.5826 15.2605 35.3845 14.821 35.3845H13.3305C12.9866 35.3845 12.7078 35.6633 12.7078 36.0072V38.683C12.7078 39.2522 13.1693 39.7137 13.7385 39.7137H24.0461C24.3877 39.7137 24.6646 39.4368 24.6646 39.0953Z" fill="url(#paint0_linear_208_798)"/>
<path d="M24.0419 35.3845C24.3858 35.3845 24.6646 35.6633 24.6646 36.0072V39.0953C24.6646 39.4368 24.3877 39.7137 24.0461 39.7137H13.7385C13.1693 39.7137 12.7078 39.2522 12.7078 38.683V36.0072C12.7078 35.6633 12.9866 35.3845 13.3305 35.3845H14.821C15.2605 35.3845 15.6765 35.5826 15.9536 35.9236C17.3626 37.6578 20.0098 37.6578 21.4188 35.9236C21.6959 35.5826 22.1119 35.3845 22.5514 35.3845H24.0419Z" fill="url(#paint1_linear_208_798)"/>
<path d="M35.5906 5.69868C35.5906 5.47097 35.7752 5.28637 36.0029 5.28637H39.7137C39.9414 5.28637 40.126 5.47097 40.126 5.69868C40.126 5.92638 39.9414 6.11098 39.7137 6.11098H36.0029C35.7752 6.11098 35.5906 5.92638 35.5906 5.69868Z" fill="url(#paint2_linear_208_798)"/>
<path fill-rule="evenodd" clip-rule="evenodd" d="M11.4709 15.5939C8.51066 15.5939 6.11093 17.9937 6.11093 20.9539C6.11093 23.9141 8.51066 26.3138 11.4709 26.3138H13.7993C15.4509 26.3138 16.8825 25.1706 17.248 23.56C17.5954 22.0287 19.777 22.0287 20.1244 23.56C20.4898 25.1706 21.9215 26.3138 23.5731 26.3138H25.9015C28.8617 26.3138 31.2615 23.9141 31.2615 20.9539C31.2615 17.9937 28.8617 15.5939 25.9015 15.5939H11.4709ZM12.78 18.6367C13.2627 18.335 13.8986 18.4818 14.2004 18.9645L15.2311 20.6137C15.5328 21.0965 15.3861 21.7324 14.9033 22.0341C14.4206 22.3358 13.7847 22.1891 13.4829 21.7063L12.4522 20.0571C12.1505 19.5744 12.2972 18.9385 12.78 18.6367ZM9.86838 18.8593C10.342 18.5436 10.982 18.6716 11.2978 19.1452L13.3593 22.2375C13.6751 22.7112 13.5471 23.3511 13.0734 23.6669C12.5998 23.9827 11.9598 23.8547 11.644 23.381L9.5825 20.2887C9.26673 19.8151 9.39472 19.1751 9.86838 18.8593ZM26.5695 18.9645C26.2678 18.4818 25.6318 18.335 25.1491 18.6367C24.6663 18.9385 24.5196 19.5744 24.8213 20.0571L25.8521 21.7063C26.1538 22.1891 26.7897 22.3358 27.2724 22.0341C27.7552 21.7324 27.9019 21.0965 27.6002 20.6137L26.5695 18.9645ZM23.6669 19.1452C23.3511 18.6716 22.7112 18.5436 22.2375 18.8593C21.7638 19.1751 21.6358 19.8151 21.9516 20.2887L24.0131 23.381C24.3289 23.8547 24.9689 23.9827 25.4425 23.6669C25.9162 23.3511 26.0442 22.7112 25.7284 22.2375L23.6669 19.1452Z" fill="url(#paint3_linear_208_798)"/>
<path fill-rule="evenodd" clip-rule="evenodd" d="M11.7717 11.8832C6.82365 11.8832 2.8125 15.8944 2.8125 20.8424V21.4224C2.8125 26.1732 6.66385 30.0246 11.4147 30.0246H13.3448C14.6847 30.0246 15.9548 29.4273 16.8094 28.3952C17.7839 27.2184 19.5885 27.2184 20.563 28.3952C21.4176 29.4273 22.6877 30.0246 24.0276 30.0246H25.9576C30.7085 30.0246 34.5599 26.1732 34.5599 21.4224V20.8424C34.5599 15.8944 30.5487 11.8832 25.6007 11.8832H11.7717ZM4.87402 20.8424C4.87402 17.0329 7.9622 13.9447 11.7717 13.9447H25.6007C29.4102 13.9447 32.4984 17.0329 32.4984 20.8424V21.4224C32.4984 25.0347 29.57 27.9631 25.9576 27.9631H24.0276C23.3018 27.9631 22.6137 27.6395 22.1508 27.0805C20.3519 24.908 17.0205 24.908 15.2216 27.0805C14.7586 27.6395 14.0706 27.9631 13.3448 27.9631H11.4147C7.8024 27.9631 4.87402 25.0347 4.87402 21.4224V20.8424Z" fill="url(#paint4_linear_208_798)"/>
<defs>
<linearGradient id="paint0_linear_208_798" x1="22.5" y1="3.22485" x2="22.5" y2="41.7752" gradientUnits="userSpaceOnUse">
<stop stop-color="#F39727"/>
<stop offset="1" stop-color="#B1660D"/>
</linearGradient>
<linearGradient id="paint1_linear_208_798" x1="22.5" y1="3.22485" x2="22.5" y2="41.7752" gradientUnits="userSpaceOnUse">
<stop stop-color="#F39727"/>
<stop offset="1" stop-color="#B1660D"/>
</linearGradient>
<linearGradient id="paint2_linear_208_798" x1="22.5" y1="3.22485" x2="22.5" y2="41.7752" gradientUnits="userSpaceOnUse">
<stop stop-color="#F39727"/>
<stop offset="1" stop-color="#B1660D"/>
</linearGradient>
<linearGradient id="paint3_linear_208_798" x1="22.5" y1="3.22485" x2="22.5" y2="41.7752" gradientUnits="userSpaceOnUse">
<stop stop-color="#F39727"/>
<stop offset="1" stop-color="#B1660D"/>
</linearGradient>
<linearGradient id="paint4_linear_208_798" x1="22.5" y1="3.22485" x2="22.5" y2="41.7752" gradientUnits="userSpaceOnUse">
<stop stop-color="#F39727"/>
<stop offset="1" stop-color="#B1660D"/>
</linearGradient>
</defs>
</svg>
