<svg width="45" height="32" viewBox="0 0 45 32" fill="none" xmlns="http://www.w3.org/2000/svg">
<path d="M26.5909 18C24.8864 18 23.4375 17.4167 22.2443 16.25C21.0511 15.0833 20.4545 13.6667 20.4545 12C20.4545 10.3333 21.0511 8.91667 22.2443 7.75C23.4375 6.58333 24.8864 6 26.5909 6C28.2955 6 29.7443 6.58333 30.9375 7.75C32.1307 8.91667 32.7273 10.3333 32.7273 12C32.7273 13.6667 32.1307 15.0833 30.9375 16.25C29.7443 17.4167 28.2955 18 26.5909 18ZM12.2727 24C11.1477 24 10.1847 23.6083 9.38352 22.825C8.58239 22.0417 8.18182 21.1 8.18182 20V4C8.18182 2.9 8.58239 1.95833 9.38352 1.175C10.1847 0.391667 11.1477 0 12.2727 0H40.9091C42.0341 0 42.9972 0.391667 43.7983 1.175C44.5994 1.95833 45 2.9 45 4V20C45 21.1 44.5994 22.0417 43.7983 22.825C42.9972 23.6083 42.0341 24 40.9091 24H12.2727ZM16.3636 20H36.8182C36.8182 18.9 37.2188 17.9583 38.0199 17.175C38.821 16.3917 39.7841 16 40.9091 16V8C39.7841 8 38.821 7.60833 38.0199 6.825C37.2188 6.04167 36.8182 5.1 36.8182 4H16.3636C16.3636 5.1 15.9631 6.04167 15.1619 6.825C14.3608 7.60833 13.3977 8 12.2727 8V16C13.3977 16 14.3608 16.3917 15.1619 17.175C15.9631 17.9583 16.3636 18.9 16.3636 20ZM38.8636 32H4.09091C2.96591 32 2.00284 31.6083 1.2017 30.825C0.400568 30.0417 0 29.1 0 28V6H4.09091V28H38.8636V32Z" fill="url(#paint0_linear_378_4011)"/>
<defs>
<linearGradient id="paint0_linear_378_4011" x1="22.5" y1="0" x2="22.5" y2="32" gradientUnits="userSpaceOnUse">
<stop stop-color="#95D904"/>
<stop offset="1" stop-color="#4F7302"/>
</linearGradient>
</defs>
</svg>
