<svg width="45" height="45" viewBox="0 0 45 45" fill="none" xmlns="http://www.w3.org/2000/svg">
<path fill-rule="evenodd" clip-rule="evenodd" d="M6.14837 16.6195C5.52779 16.6195 5.02471 17.1226 5.02471 17.7432V27.2568C5.02471 27.8774 5.52779 28.3805 6.14837 28.3805H28.2057C28.2817 27.8437 28.743 27.4309 29.3008 27.4309C29.8586 27.4309 30.3199 27.8437 30.3959 28.3805H38.8516C39.4722 28.3805 39.9753 27.8774 39.9753 27.2568V17.7432C39.9753 17.1226 39.4722 16.6195 38.8516 16.6195H30.3959C30.3199 17.1563 29.8586 17.5691 29.3008 17.5691C28.743 17.5691 28.2817 17.1563 28.2057 16.6195H6.14837ZM6.14837 30.5927H29.3008H38.8516C40.694 30.5927 42.1875 29.0992 42.1875 27.2568V17.7432C42.1875 15.9008 40.694 14.4073 38.8516 14.4073H29.3008H6.14837C4.30602 14.4073 2.8125 15.9008 2.8125 17.7432V27.2568C2.8125 29.0992 4.30602 30.5927 6.14837 30.5927ZM29.3008 20.4443C29.9117 20.4443 30.4069 20.9395 30.4069 21.5504V22.5V23.4496C30.4069 24.0605 29.9117 24.5557 29.3008 24.5557C28.6899 24.5557 28.1947 24.0605 28.1947 23.4496V22.5V21.5504C28.1947 20.9395 28.6899 20.4443 29.3008 20.4443ZM7.41191 19.2261C6.91932 19.2261 6.52 19.6255 6.52 20.118V20.5464C6.52 21.039 6.91932 21.4383 7.41191 21.4383H25.473C25.9656 21.4383 26.3649 21.039 26.3649 20.5464V20.118C26.3649 19.6255 25.9656 19.2261 25.473 19.2261H7.41191ZM6.52 24.2943C6.52 23.8018 6.91932 23.4024 7.41191 23.4024H16.9999C17.4925 23.4024 17.8918 23.8018 17.8918 24.2943V24.7227C17.8918 25.2153 17.4925 25.6146 16.9999 25.6146H7.41191C6.91932 25.6146 6.52 25.2153 6.52 24.7227V24.2943ZM33.5002 17.1573C32.0683 17.1573 30.9076 18.3181 30.9076 19.7499V25.25C30.9076 26.6819 32.0683 27.8427 33.5002 27.8427H36.9192C38.351 27.8427 39.5118 26.6819 39.5118 25.25V19.7499C39.5118 18.3181 38.351 17.1573 36.9192 17.1573H33.5002ZM33.1198 19.7499C33.1198 19.5399 33.2901 19.3695 33.5002 19.3695H36.9192C37.1293 19.3695 37.2996 19.5399 37.2996 19.7499V25.25C37.2996 25.4601 37.1293 25.6305 36.9192 25.6305H33.5002C33.2901 25.6305 33.1198 25.4601 33.1198 25.25V19.7499Z" fill="url(#paint0_linear_208_784)"/>
<path d="M33.1198 19.7499C33.1198 19.5399 33.2901 19.3695 33.5002 19.3695H36.9192C37.1293 19.3695 37.2996 19.5399 37.2996 19.7499V25.25C37.2996 25.4601 37.1293 25.6305 36.9192 25.6305H33.5002C33.2901 25.6305 33.1198 25.4601 33.1198 25.25V19.7499Z" fill="url(#paint1_linear_208_784)"/>
<defs>
<linearGradient id="paint0_linear_208_784" x1="22.5" y1="14.4073" x2="22.8219" y2="30.2688" gradientUnits="userSpaceOnUse">
<stop stop-color="#E9860D"/>
<stop offset="1" stop-color="#AF650D"/>
</linearGradient>
<linearGradient id="paint1_linear_208_784" x1="22.5" y1="14.4073" x2="22.8219" y2="30.2688" gradientUnits="userSpaceOnUse">
<stop stop-color="#E9860D"/>
<stop offset="1" stop-color="#AF650D"/>
</linearGradient>
</defs>
</svg>
