<svg width="31" height="41" viewBox="0 0 31 41" fill="none" xmlns="http://www.w3.org/2000/svg">
<path d="M10.5833 1.25H19.9167M27.6944 39.25L27.3833 37.9635M2.80556 39.25L3.11667 37.9635M5.29445 28.9583H4.36111C2.64289 28.9583 1.25 27.5406 1.25 25.7917L1.25 6C1.25 4.2511 2.64289 2.83333 4.36111 2.83333H26.1389C27.8571 2.83333 29.25 4.2511 29.25 6V25.7917C29.25 27.5406 27.8571 28.9583 26.1389 28.9583H25.2056M5.29445 28.9583H25.2056M5.29445 28.9583L4.36111 32.8177M25.2056 28.9583L26.1389 32.8177M3.11667 37.9635H27.3833M3.11667 37.9635L4.36111 32.8177M4.36111 32.8177H26.1389M26.1389 32.8177L27.3833 37.9635M7.47222 23.4167H7.48778M23.0122 23.4167H23.0278M9.02778 18.6667H21.4722C23.1904 18.6667 24.5833 17.2489 24.5833 15.5V10.75C24.5833 9.0011 23.1904 7.58333 21.4722 7.58333H9.02778C7.30956 7.58333 5.91667 9.0011 5.91667 10.75V15.5C5.91667 17.2489 7.30956 18.6667 9.02778 18.6667Z" stroke="url(#paint0_linear_363_1556)" stroke-width="2.5" stroke-linecap="round" stroke-linejoin="round"/>
<defs>
<linearGradient id="paint0_linear_363_1556" x1="15.25" y1="1.25" x2="15.25" y2="39.25" gradientUnits="userSpaceOnUse">
<stop stop-color="#EF890D"/>
<stop offset="1" stop-color="#A8620D"/>
</linearGradient>
</defs>
</svg>
